<?xml version="1.0" encoding="UTF-8" standalone="no"?>
<svg
   xmlns:dc="http://purl.org/dc/elements/1.1/"
   xmlns:cc="http://creativecommons.org/ns#"
   xmlns:rdf="http://www.w3.org/1999/02/22-rdf-syntax-ns#"
   xmlns:svg="http://www.w3.org/2000/svg"
   xmlns="http://www.w3.org/2000/svg"
   xmlns:xlink="http://www.w3.org/1999/xlink"
   id="svg16"
   version="1.1"
   viewBox="0 0 15 14"
   height="14px"
   width="15px">
  <metadata
     id="metadata20">
    <rdf:RDF>
      <cc:Work
         rdf:about="">
        <dc:format>image/svg+xml</dc:format>
        <dc:type
           rdf:resource="http://purl.org/dc/dcmitype/StillImage" />
        <dc:title>burger</dc:title>
      </cc:Work>
    </rdf:RDF>
  </metadata>
  <!-- Generator: Sketch 63.1 (92452) - https://sketch.com -->
  <title
     id="title2">burger</title>
  <desc
     id="desc4">Created with Sketch.</desc>
  <defs
     id="defs7">
    <path
       id="path-1"
       d="M14,12 C14.5522847,12 15,12.4477153 15,13 C15,13.5522847 14.5522847,14 14,14 L14,14 L1,14 C0.44771525,14 0,13.5522847 0,13 C0,12.4477153 0.44771525,12 1,12 L1,12 Z M14,6 C14.5522847,6 15,6.44771525 15,7 C15,7.55228475 14.5522847,8 14,8 L14,8 L1,8 C0.44771525,8 0,7.55228475 0,7 C0,6.44771525 0.44771525,6 1,6 L1,6 Z M14,0 C14.5522847,0 15,0.44771525 15,1 C15,1.55228475 14.5522847,2 14,2 L14,2 L1,2 C0.44771525,2 0,1.55228475 0,1 C0,0.44771525 0.44771525,0 1,0 L1,0 Z" />
  </defs>
  <g
     style="fill:#ff00ff"
     fill-rule="evenodd"
     fill="none"
     stroke-width="1"
     stroke="none"
     id="GIFOS">
    <g
       style="fill:#ff00ff"
       transform="translate(-669.000000, -2948.000000)"
       id="00-UI-Kit">
      <g
         style="fill:#ff00ff"
         transform="translate(669.000000, 2948.000000)"
         id="burger">
        <mask
           fill="white"
           id="mask-2">
          <use
             id="use9"
             xlink:href="#path-1" />
        </mask>
        <use
           style="fill:#ff00ff"
           xlink:href="#path-1"
           fill-rule="nonzero"
           fill="#572EE5"
           id="Combined-Shape" />
      </g>
    </g>
  </g>
</svg>
